<svg width="138" height="32" viewBox="0 0 138 32" xmlns="http://www.w3.org/2000/svg">
    <g fill="#FFF" fill-rule="nonzero">
        <g transform="translate(.82 .82)">
            <ellipse cx="4.349" cy="4.357" rx="4.332" ry="4.341"/>
            <ellipse cx="25.198" cy="25.214" rx="4.332" ry="4.341"/>
        </g>
        <g>
            <path d="M21.727 21.735c2.273-2.28 5.908-2.363 8.296-.27 2.289-5.63 1.148-12.333-3.422-16.903C22.031 0 15.344-1.14 9.715 1.141c2.117 2.387 2.035 6.038-.246 8.32a6.066 6.066 0 0 1-8.32.246c-2.29 5.637-1.149 12.34 3.413 16.91 4.57 4.57 11.266 5.711 16.894 3.422a6.08 6.08 0 0 1 .271-8.304zm-10.42-1.838a6.076 6.076 0 0 1 0-8.59 6.066 6.066 0 0 1 8.582 0 6.076 6.076 0 0 1 0 8.59c-2.371 2.372-6.22 2.372-8.582 0z"/>
            <ellipse cx="15.598" cy="15.606" rx="3.889" ry="3.897"/>
        </g>
        <g>
            <path d="M40.607 8.648a2.787 2.787 0 0 1-1.075-1.017 2.772 2.772 0 0 1-.394-1.469c0-.55.132-1.034.394-1.469a2.731 2.731 0 0 1 1.075-1.017c.451-.246.968-.37 1.535-.37.475 0 .91.083 1.296.255.386.164.714.41.976.722l-.82.755c-.37-.427-.837-.648-1.387-.648-.344 0-.648.074-.91.221-.271.148-.476.361-.624.624a1.87 1.87 0 0 0-.222.91c0 .345.074.649.222.911.148.271.36.476.623.624.271.148.575.222.911.222.55 0 1.018-.222 1.387-.657l.82.755c-.262.32-.59.566-.976.73-.386.164-.82.255-1.296.255a2.958 2.958 0 0 1-1.535-.337zM49.87 7.893V8.92h-4.274V3.397h4.168v1.026h-2.896V5.62h2.56v.992h-2.56v1.28zM56.27 3.397V8.91h-1.05l-2.748-3.348v3.348h-1.264V3.397h1.059l2.74 3.348V3.397zM59.052 4.439h-1.764V3.397h4.808v1.042h-1.764v4.48h-1.28v-4.48zM66.626 8.919l-1.067-1.534h-1.173v1.534h-1.28V3.397h2.387c.493 0 .911.082 1.272.246.361.164.64.394.829.69.197.303.295.656.295 1.066 0 .41-.098.763-.295 1.058a1.871 1.871 0 0 1-.837.681l1.239 1.773h-1.37v.008zm-.32-4.234c-.197-.164-.493-.246-.878-.246h-1.042v1.92h1.042c.385 0 .673-.082.878-.254.197-.164.295-.402.295-.706 0-.304-.098-.542-.295-.714zM70.359 8.64c-.46-.246-.82-.59-1.083-1.017a2.764 2.764 0 0 1-.394-1.46c0-.542.131-1.027.394-1.461a2.753 2.753 0 0 1 1.083-1.018c.46-.246.976-.37 1.55-.37.575 0 1.092.124 1.543.37.46.246.82.59 1.083 1.018.263.434.394.919.394 1.46 0 .542-.131 1.026-.394 1.46a2.753 2.753 0 0 1-1.083 1.018c-.46.246-.968.37-1.542.37a3.232 3.232 0 0 1-1.551-.37zm2.429-.944c.262-.147.467-.36.615-.623a1.87 1.87 0 0 0 .222-.91c0-.346-.074-.65-.222-.912a1.553 1.553 0 0 0-.615-.623 1.776 1.776 0 0 0-.886-.222c-.329 0-.624.074-.887.222a1.605 1.605 0 0 0-.615.623 1.87 1.87 0 0 0-.222.911c0 .345.074.648.222.91.148.272.353.477.615.624.263.148.558.222.887.222a1.62 1.62 0 0 0 .886-.222zM80.057 4.423v1.46h2.552V6.91h-2.552v2.01h-1.28V3.397h4.169v1.026zM88.418 7.893V8.92h-4.274V3.397h4.168v1.026h-2.897V5.62h2.56v.992h-2.56v1.28zM89.764 3.397h2.503c.599 0 1.124.115 1.591.345.46.23.821.55 1.075.968.255.418.386.894.386 1.452 0 .558-.131 1.034-.386 1.452a2.565 2.565 0 0 1-1.075.969c-.459.23-.992.344-1.591.344h-2.503v-5.53zm2.445 4.472c.55 0 .993-.156 1.321-.46.328-.303.493-.722.493-1.247 0-.525-.165-.944-.493-1.247-.328-.304-.771-.46-1.32-.46h-1.166v3.422h1.165v-.008zM100.874 7.893V8.92h-4.275V3.397h4.168v1.026h-2.896V5.62h2.56v.992h-2.56v1.28zM105.74 8.919l-1.067-1.534H103.499v1.534h-1.28V3.397h2.388c.492 0 .91.082 1.272.246.361.164.64.394.829.69.197.303.295.656.295 1.066 0 .41-.098.763-.295 1.058a1.871 1.871 0 0 1-.837.681l1.239 1.773h-1.37v.008zm-.329-4.234c-.197-.164-.492-.246-.878-.246h-1.042v1.92h1.042c.386 0 .673-.082.878-.254.197-.164.296-.402.296-.706.008-.304-.09-.542-.296-.714zM111.975 7.737h-2.56l-.492 1.182h-1.305l2.462-5.514h1.264l2.47 5.514h-1.338l-.5-1.182zm-.402-.968-.878-2.108-.878 2.108h1.756zM114.716 3.397h1.28v4.48h2.765v1.042h-4.045zM39.491 12.373h2.503c.599 0 1.124.115 1.592.345.46.23.82.55 1.075.968.254.419.385.895.385 1.452 0 .558-.131 1.034-.385 1.453a2.565 2.565 0 0 1-1.075.968c-.46.23-.993.345-1.592.345H39.49v-5.53zm2.437 4.472c.55 0 .993-.156 1.321-.46.328-.303.493-.721.493-1.247 0-.525-.165-.943-.493-1.247-.328-.303-.771-.46-1.32-.46h-1.166v3.422h1.165v-.008zM50.601 16.87v1.025h-4.275v-5.513h4.168v1.025h-2.896v1.198h2.56v.985h-2.56v1.28zM55.623 17.616a2.787 2.787 0 0 1-1.075-1.017 2.772 2.772 0 0 1-.394-1.469c0-.55.131-1.034.394-1.468a2.731 2.731 0 0 1 1.075-1.018c.45-.246.968-.37 1.534-.37.476 0 .91.083 1.296.255.386.164.714.41.977.722l-.82.755c-.37-.427-.838-.648-1.387-.648-.345 0-.649.074-.911.221-.271.148-.476.362-.624.624a1.87 1.87 0 0 0-.221.91c0 .337.074.65.221.912.148.27.361.476.624.623.27.148.574.222.91.222.55 0 1.018-.222 1.387-.657l.82.755c-.262.32-.59.566-.976.73-.385.165-.82.255-1.296.255a2.806 2.806 0 0 1-1.534-.337zM61.62 17.616c-.459-.246-.82-.59-1.083-1.017a2.764 2.764 0 0 1-.393-1.46c0-.542.13-1.026.393-1.461a2.753 2.753 0 0 1 1.084-1.017c.459-.247.976-.37 1.55-.37.575 0 1.092.123 1.543.37.46.246.82.59 1.083 1.017.262.435.394.919.394 1.46 0 .542-.132 1.026-.394 1.461a2.753 2.753 0 0 1-1.083 1.017c-.46.247-.968.37-1.543.37a3.232 3.232 0 0 1-1.55-.37zm2.43-.943c.262-.148.467-.361.615-.624a1.87 1.87 0 0 0 .221-.91c0-.337-.074-.649-.221-.911a1.553 1.553 0 0 0-.616-.624 1.776 1.776 0 0 0-.886-.221c-.328 0-.624.073-.886.221a1.605 1.605 0 0 0-.615.624 1.87 1.87 0 0 0-.222.91c0 .337.074.649.222.911.147.271.352.476.615.624.262.148.558.221.886.221.328 0 .624-.073.886-.221zM72.542 12.373v5.514h-1.05l-2.75-3.348v3.348H67.48v-5.514h1.058l2.74 3.348v-3.348h1.265zM75.29 17.616a2.787 2.787 0 0 1-1.075-1.017 2.772 2.772 0 0 1-.393-1.469c0-.55.13-1.034.393-1.468a2.731 2.731 0 0 1 1.075-1.018c.452-.246.968-.37 1.535-.37.476 0 .91.083 1.296.255.386.173.714.41.976.722l-.82.755c-.37-.427-.837-.648-1.387-.648-.344 0-.648.074-.91.221-.271.148-.476.362-.624.624a1.87 1.87 0 0 0-.222.91c0 .337.074.65.222.912.148.27.36.476.623.623.271.148.575.222.911.222.55 0 1.018-.222 1.387-.657l.82.755c-.262.32-.59.566-.976.73-.386.165-.82.255-1.296.255a2.839 2.839 0 0 1-1.535-.337zM80.287 12.373h1.28v5.514h-1.28zM83.2 12.373h1.28v4.48h2.765v1.042H83.2zM88.287 12.373h1.28v5.514h-1.28zM94.843 16.706h-2.56l-.492 1.181h-1.305l2.462-5.514h1.263l2.47 5.514h-1.337l-.5-1.181zm-.402-.969-.878-2.108-.878 2.108h1.756zM98.61 17.616a2.787 2.787 0 0 1-1.076-1.017 2.772 2.772 0 0 1-.393-1.469c0-.55.13-1.034.393-1.468a2.731 2.731 0 0 1 1.075-1.018c.452-.246.968-.37 1.535-.37.475 0 .91.083 1.296.255.386.164.714.41.976.722l-.82.755c-.37-.427-.837-.648-1.387-.648-.344 0-.648.074-.91.221-.271.148-.476.362-.624.624a1.87 1.87 0 0 0-.222.91c0 .337.074.65.222.912.148.27.36.476.623.623.271.148.575.222.911.222.55 0 1.018-.222 1.387-.657l.82.755c-.262.32-.59.566-.976.73-.386.165-.82.255-1.296.255a2.806 2.806 0 0 1-1.535-.337zM103.598 12.373h1.28v5.514h-1.28zM107.643 17.616c-.46-.246-.82-.59-1.083-1.017a2.764 2.764 0 0 1-.394-1.46c0-.542.131-1.026.394-1.461a2.753 2.753 0 0 1 1.083-1.017c.46-.247.976-.37 1.55-.37.575 0 1.092.123 1.543.37.46.246.82.59 1.083 1.017.263.435.394.919.394 1.46 0 .542-.13 1.026-.394 1.461a2.753 2.753 0 0 1-1.083 1.017c-.46.247-.968.37-1.542.37a3.232 3.232 0 0 1-1.55-.37zm2.429-.943c.262-.148.467-.361.615-.624a1.87 1.87 0 0 0 .222-.91c0-.337-.074-.649-.222-.911a1.553 1.553 0 0 0-.615-.624 1.776 1.776 0 0 0-.886-.221c-.329 0-.624.073-.887.221a1.605 1.605 0 0 0-.615.624 1.87 1.87 0 0 0-.221.91c0 .337.073.649.221.911.148.271.353.476.615.624.263.148.558.221.887.221.328 0 .623-.073.886-.221zm-.534-5.883h1.321l-1.427 1.132h-.96l1.066-1.132zM118.556 12.373v5.514h-1.05l-2.75-3.348v3.348h-1.263v-5.514h1.059l2.74 3.348v-3.348h1.264zM42.133 24.91v1.954h-1.271v-1.97l-2.134-3.544h1.354l1.477 2.453 1.477-2.453h1.255zM51.225 26.864l-1.067-1.535h-1.173v1.535h-1.28V21.35h2.387c.493 0 .911.082 1.272.246.361.164.64.394.829.697.197.296.295.657.295 1.067 0 .41-.098.763-.295 1.058a1.871 1.871 0 0 1-.837.681l1.239 1.773h-1.37v-.008zm-.329-4.226c-.197-.164-.492-.246-.878-.246h-1.033v1.92h1.042c.385 0 .672-.082.878-.255.197-.164.295-.402.295-.705 0-.312-.098-.55-.304-.714zM58.1 25.838v1.026h-4.274V21.35h4.168v1.025h-2.897v1.198h2.56v.993h-2.56v1.28h3.004zM63.163 24.025h1.165v2.231a3.18 3.18 0 0 1-1.042.517 3.95 3.95 0 0 1-1.19.18c-.574 0-1.09-.122-1.542-.368a2.731 2.731 0 0 1-1.075-1.018 2.793 2.793 0 0 1-.394-1.469c0-.55.131-1.033.394-1.468a2.753 2.753 0 0 1 1.083-1.018c.46-.246.985-.369 1.559-.369.484 0 .919.082 1.313.246.394.164.722.402.993.706l-.82.755a1.885 1.885 0 0 0-1.429-.624c-.352 0-.664.074-.935.222-.27.147-.484.353-.64.623-.156.271-.23.575-.23.92 0 .344.074.647.23.91.156.27.361.476.632.624.27.147.582.221.927.221.37 0 .697-.082.993-.238v-1.583h.008zM65.838 21.35h1.28v5.514h-1.28zM69.3 26.782a2.97 2.97 0 0 1-.984-.46l.435-.96c.238.172.517.312.845.419.328.106.648.155.976.155.361 0 .632-.057.804-.164.173-.106.263-.254.263-.426a.407.407 0 0 0-.156-.329 1.12 1.12 0 0 0-.394-.205c-.164-.049-.377-.106-.648-.172a9.412 9.412 0 0 1-1.034-.295c-.27-.099-.5-.263-.69-.484-.188-.23-.286-.517-.286-.887 0-.32.09-.607.262-.87.173-.262.435-.467.788-.615.353-.156.78-.23 1.28-.23.353 0 .697.042 1.034.124.336.082.632.205.886.36l-.394.969c-.509-.287-1.017-.435-1.526-.435-.361 0-.624.057-.788.172a.528.528 0 0 0-.254.46c0 .188.098.328.295.418.197.09.5.18.903.27.418.1.763.198 1.034.305.27.106.5.254.689.475.189.222.287.51.287.878 0 .312-.09.6-.262.862-.18.262-.443.468-.796.615-.353.156-.78.23-1.288.23-.452 0-.87-.057-1.28-.18zM75.175 22.392h-1.764V21.35h4.808v1.042h-1.764v4.48h-1.28v-4.48zM82.749 26.864l-1.067-1.535H80.51v1.535h-1.28V21.35h2.387c.493 0 .911.082 1.272.246.361.164.64.394.829.697.197.296.295.657.295 1.067 0 .41-.098.763-.295 1.058a1.871 1.871 0 0 1-.837.681l1.239 1.773h-1.37v-.008zm-.32-4.226c-.197-.164-.493-.246-.878-.246h-1.042v1.92h1.042c.385 0 .673-.082.878-.255.197-.164.295-.402.295-.705 0-.312-.098-.55-.295-.714zM86.482 26.593c-.46-.246-.82-.59-1.083-1.018a2.764 2.764 0 0 1-.394-1.46c0-.542.131-1.026.394-1.46a2.753 2.753 0 0 1 1.083-1.018c.46-.246.976-.37 1.55-.37.575 0 1.092.124 1.543.37.46.246.82.59 1.083 1.017.263.435.394.92.394 1.46 0 .542-.131 1.027-.394 1.461a2.753 2.753 0 0 1-1.083 1.018c-.46.246-.968.37-1.542.37a3.232 3.232 0 0 1-1.55-.37zm2.429-.944c.262-.147.467-.36.615-.623a1.87 1.87 0 0 0 .222-.911c0-.345-.074-.648-.222-.91a1.553 1.553 0 0 0-.615-.624 1.776 1.776 0 0 0-.886-.222c-.329 0-.624.074-.887.222a1.605 1.605 0 0 0-.615.623 1.87 1.87 0 0 0-.221.91c0 .345.073.65.221.912.148.27.353.476.615.623.263.148.558.222.887.222.328 0 .623-.074.886-.222zM94.9 21.35h1.28v4.48h2.766v1.042H94.9zM103.672 25.682h-2.56l-.493 1.182h-1.304l2.461-5.514h1.264l2.47 5.514h-1.338l-.5-1.182zm-.402-.968-.878-2.109-.878 2.109h1.756zM111.196 24.5c.18.238.27.526.27.862 0 .484-.188.853-.565 1.116-.378.263-.928.394-1.642.394h-2.855v-5.514h2.691c.673 0 1.19.131 1.551.386.361.254.542.607.542 1.05 0 .27-.066.509-.189.714a1.31 1.31 0 0 1-.542.492c.312.098.558.263.739.5zm-3.52-2.19v1.296h1.272c.311 0 .558-.057.714-.164.164-.107.246-.27.246-.492 0-.222-.082-.378-.246-.484-.165-.107-.403-.164-.714-.164h-1.272v.008zm2.248 3.43c.172-.107.254-.28.254-.51 0-.459-.336-.688-1.017-.688h-1.493v1.362h1.493c.336 0 .59-.058.763-.165zM113.887 26.593c-.46-.246-.82-.59-1.083-1.018a2.764 2.764 0 0 1-.394-1.46c0-.542.132-1.026.394-1.46a2.753 2.753 0 0 1 1.083-1.018c.46-.246.977-.37 1.55-.37.575 0 1.092.124 1.544.37.459.246.82.59 1.083 1.017.262.435.393.92.393 1.46 0 .542-.13 1.027-.393 1.461a2.753 2.753 0 0 1-1.083 1.018c-.46.246-.969.37-1.543.37a3.232 3.232 0 0 1-1.55-.37zm2.437-.944c.263-.147.468-.36.615-.623a1.87 1.87 0 0 0 .222-.911c0-.345-.074-.648-.222-.91a1.553 1.553 0 0 0-.615-.624 1.776 1.776 0 0 0-.886-.222c-.328 0-.624.074-.886.222a1.605 1.605 0 0 0-.616.623 1.87 1.87 0 0 0-.221.91c0 .345.074.65.221.912.148.27.353.476.616.623.262.148.558.222.886.222.328 0 .615-.074.886-.222zM123.266 26.864l-1.067-1.535h-1.173v1.535h-1.28V21.35h2.387c.493 0 .911.082 1.272.246.361.164.64.394.829.697.197.296.295.657.295 1.067 0 .41-.098.763-.295 1.058a1.871 1.871 0 0 1-.837.681l1.239 1.773h-1.37v-.008zm-.329-4.226c-.196-.164-.492-.246-.878-.246h-1.042v1.92h1.042c.386 0 .673-.082.878-.255.197-.164.296-.402.296-.705.008-.312-.09-.55-.296-.714zM129.502 25.682h-2.56l-.493 1.182h-1.304l2.461-5.514h1.264l2.47 5.514h-1.338l-.5-1.182zm-.403-.968-.877-2.109-.878 2.109h1.755zM132.234 21.35h1.28v4.48h2.765v1.042h-4.045z"/>
        </g>
    </g>
</svg>
